<svg xmlns="http://www.w3.org/2000/svg" width="20.4" height="20.4" viewBox="0 0 20.4 20.4">
    <defs>
        <style>
            .prefix__cls-1{fill:#393939;stroke:#eff7f8;stroke-width:.4px}
        </style>
    </defs>
    <g id="prefix__online-stats" transform="translate(.2 .2)">
        <path id="prefix__Path_48799" d="M20.648 15.865a.753.753 0 0 1-.565-.256c-.625-.715-1.566-1.739-2.869-3.132a.753.753 0 0 1 1.1-1.024c1.318 1.4 2.259 2.432 2.9 3.162a.753.753 0 0 1-.565 1.25z" class="prefix__cls-1" data-name="Path 48799" transform="translate(-6.176 -4.862)"/>
        <path id="prefix__Path_48800" d="M12.567 13.541C9.9 13.541 8.2 9.49 8.2 7.367a4.367 4.367 0 1 1 8.734 0c0 2.123-1.702 6.174-4.367 6.174zm0-9.035a2.861 2.861 0 0 0-2.861 2.861c0 1.717 1.415 4.668 2.861 4.668s2.861-2.951 2.861-4.668a2.861 2.861 0 0 0-2.861-2.861z" class="prefix__cls-1" data-name="Path 48800" transform="translate(-4.132 -3)"/>
        <path id="prefix__Path_48801" d="M12.788 19.953H9.995a6.039 6.039 0 0 1-5.2-2.974 2.181 2.181 0 0 1-.286-1.1 2.236 2.236 0 0 1 .279-1.087 39.092 39.092 0 0 1 3.223-3.514c.753 1.387 1.89 2.512 3.275 2.512 2.665 0 4.367-4.146 4.367-6.319a4.368 4.368 0 1 0-8.734 0 7.393 7.393 0 0 0 .437 2.312 36.1 36.1 0 0 0-3.863 4.246A3.726 3.726 0 0 0 3 15.877a3.8 3.8 0 0 0 .5 1.888 7.546 7.546 0 0 0 6.5 3.73h2.793a.771.771 0 0 0 0-1.541zM11.282 4.541a2.9 2.9 0 0 1 2.861 2.928c0 1.757-1.416 4.778-2.861 4.778-.911 0-1.807-1.2-2.349-2.528a.476.476 0 0 0-.033-.092 6.287 6.287 0 0 1-.474-2.158 2.9 2.9 0 0 1 2.856-2.928z" class="prefix__cls-1" data-name="Path 48801" transform="translate(-3 -3)"/>
        <path id="prefix__Path_48802" d="M22.765 26.529a3.765 3.765 0 1 1 3.765-3.765 3.765 3.765 0 0 1-3.765 3.765zm0-6.023a2.259 2.259 0 1 0 2.259 2.259 2.259 2.259 0 0 0-2.259-2.259z" class="prefix__cls-1" data-name="Path 48802" transform="translate(-6.529 -6.529)"/>
    </g>
</svg>
