<svg xmlns="http://www.w3.org/2000/svg" width="18" height="16" viewBox="0 0 18 16">
  <g id="back_button_white" data-name="back button white" transform="translate(-183 -53.231)">
    <path id="union" d="M7.021,15.74l-6.651-7a.889.889,0,0,1-.3-1.06.893.893,0,0,1,.192-.313.864.864,0,0,1,.09-.082L7.021.26a.815.815,0,0,1,1.193,0,.922.922,0,0,1,0,1.256L2.883,7.129H17.112a.888.888,0,0,1,0,1.777H2.915l5.3,5.578a.922.922,0,0,1,0,1.256.815.815,0,0,1-1.193,0Z" transform="translate(183 53.231)" fill="#fff"/>
  </g>
</svg>
