<svg xmlns="http://www.w3.org/2000/svg" width="18" height="18" viewBox="0 0 18 18">
    <g id="prefix__close-2" transform="translate(0 -.016)">
        <g id="prefix__Group_53948" data-name="Group 53948" transform="translate(0 .016)">
            <path id="prefix__Path_49157" fill="#393939" d="M10.982 9.016l6.73-6.731a.986.986 0 0 0 0-1.392L17.123.3a.987.987 0 0 0-1.393 0L9 7.034 2.27.3A.986.986 0 0 0 .878.3l-.59.59a.985.985 0 0 0 0 1.392l6.73 6.731-6.73 6.73a.987.987 0 0 0 0 1.393l.59.59a.986.986 0 0 0 1.392 0L9 11l6.73 6.73a.977.977 0 0 0 .7.287.977.977 0 0 0 .7-.287l.59-.59a.987.987 0 0 0 0-1.392z" data-name="Path 49157" transform="translate(0 -.016)"/>
        </g>
    </g>
</svg>
