<svg xmlns="http://www.w3.org/2000/svg" width="18" height="17" viewBox="0 0 18 17">
  <g id="chats" transform="translate(-1.463 -2.195)">
    <g id="message-square" transform="translate(1.463 2.195)">
      <path id="Path_49074" data-name="Path 49074" d="M17.3,3H4.7A2.692,2.692,0,0,0,2,5.684V19.105a.894.894,0,0,0,.459.778.9.9,0,0,0,.9-.009L7.4,17.441a.9.9,0,0,1,.5-.125H17.3A2.692,2.692,0,0,0,20,14.632V5.684A2.692,2.692,0,0,0,17.3,3ZM7.4,11.053a.895.895,0,1,1,.9-.895A.9.9,0,0,1,7.4,11.053Zm3.6,0a.895.895,0,1,1,.9-.895A.9.9,0,0,1,11,11.053Zm3.6,0a.895.895,0,1,1,.9-.895A.9.9,0,0,1,14.6,11.053Z" transform="translate(-2 -3)" fill="#51c5dc"/>
    </g>
  </g>
</svg>
