<svg xmlns="http://www.w3.org/2000/svg" width="14" height="14" viewBox="0 0 14 14">
    <g id="prefix__close-2" transform="translate(0 -.016)">
        <g id="prefix__Group_53948" data-name="Group 53948" transform="translate(0 .016)">
            <path id="prefix__Path_49157" fill="#969696" d="M8.542 7.016l5.234-5.235a.767.767 0 0 0 0-1.083L13.318.24a.768.768 0 0 0-1.083 0L7 5.474 1.766.24a.767.767 0 0 0-1.083 0L.224.7a.766.766 0 0 0 0 1.083l5.235 5.233-5.235 5.235a.768.768 0 0 0 0 1.083l.459.459a.767.767 0 0 0 1.083 0L7 8.558l5.234 5.235a.76.76 0 0 0 .541.224.76.76 0 0 0 .541-.224l.459-.459a.768.768 0 0 0 0-1.083z" data-name="Path 49157" transform="translate(0 -.016)"/>
        </g>
    </g>
</svg>
