<svg xmlns="http://www.w3.org/2000/svg" id="prefix__direct-download" width="18" height="18" viewBox="0 0 18 18">
    <defs>
        <style>
            .prefix__cls-1{fill:#393939}
        </style>
    </defs>
    <g id="prefix__Group_53985" data-name="Group 53985" transform="translate(5.295 8.323)">
        <path id="prefix__Path_49160" d="M155.555 249.677l-3.705-5.187h2.1V240h3.2v4.489h2.1z" class="prefix__cls-1" data-name="Path 49160" transform="translate(-151.85 -240)"/>
    </g>
    <path id="prefix__Path_49161" d="M15.839 4.448a3.714 3.714 0 0 0-3.675-3.381 3.571 3.571 0 0 0-1.794.487A4.659 4.659 0 0 0 6.891 0a4.777 4.777 0 0 0-4.734 4.449A3.2 3.2 0 0 0 3.2 10.673h3.163v-3.2h5.273v3.2H14.8a3.2 3.2 0 0 0 1.038-6.225z" class="prefix__cls-1" data-name="Path 49161"/>
</svg>
