<svg xmlns="http://www.w3.org/2000/svg" width="164" height="133" viewBox="0 0 164 133">
  <g id="Instant_messenger_logo" data-name="Instant messenger logo" transform="translate(-150 -18)">
    <text id="Instant_Messenger_web" data-name="Instant Messenger web" transform="translate(150 146)" fill="#51c5dc" font-size="14" font-family="Poppins-Medium, Poppins" font-weight="500"><tspan x="0" y="0">Instant Messenger web</tspan></text>
    <g id="Group_54034" data-name="Group 54034" transform="translate(155.987 18)">
      <g id="Group_53929" data-name="Group 53929" transform="translate(49.998)">
        <path id="Path_49141" data-name="Path 49141" d="M744.888,34.314A20.917,20.917,0,0,1,739.414,24a20.913,20.913,0,0,1-5.474,10.314h1.779a3.736,3.736,0,0,0,7.39,0Z" transform="translate(-710.281 -24)" fill="#51c5dc"/>
        <path id="Path_49142" data-name="Path 49142" d="M583.371,119.794a16.471,16.471,0,0,1,4.23,2.1c-.9-3.034-2.138-4.915-3.51-4.915a2.013,2.013,0,0,0-1.38.669,8.045,8.045,0,0,0-3.162-.669,7.882,7.882,0,0,0-1.521.166,16.518,16.518,0,0,0-18.858,16.465,16.542,16.542,0,0,0,3.64,10.37H564.2a16.433,16.433,0,0,1,9.087-24.233c-3.063,2.978-5.085,8.072-5.085,13.863a21.8,21.8,0,0,0,2.484,10.37h1.164a26.525,26.525,0,0,1-1.236-8.536c0-8.483,3.839-15.462,9.392-16.362q.8.085,1.571.244c-1.452,2.9-2.43,8.2-2.43,14.284a46.058,46.058,0,0,0,1.083,10.37h.629a82.221,82.221,0,0,1-.31-8.536c0-7.316,1.019-13.5,2.826-15.646" transform="translate(-559.169 -104.389)" fill="#51c5dc"/>
        <path id="Path_49143" data-name="Path 49143" d="M804.359,143.976a16.565,16.565,0,0,0-15.215-26.834,7.872,7.872,0,0,0-1.525-.167,8.045,8.045,0,0,0-3.163.669,2.008,2.008,0,0,0-1.379-.669c-1.373,0-2.614,1.881-3.51,4.915a16.455,16.455,0,0,1,4.235-2.1c1.8,2.149,2.82,8.338,2.82,15.648a82.255,82.255,0,0,1-.31,8.536h.629a46.061,46.061,0,0,0,1.083-10.37c0-6.081-.974-11.385-2.424-14.285q.768-.158,1.559-.245c5.556.895,9.4,7.877,9.4,16.363a26.525,26.525,0,0,1-1.236,8.536h1.164a21.805,21.805,0,0,0,2.483-10.37c0-5.791-2.022-10.885-5.085-13.863a16.433,16.433,0,0,1,9.087,24.233Z" transform="translate(-749.731 -104.388)" fill="#51c5dc"/>
        <path id="Path_49145" data-name="Path 49145" d="M596.668,333.621l-1.041-6.575h-1.066l1.041,6.575Zm2.41,0-.924-6.575h-1.063l.924,6.574Zm2.41,0-.807-6.575h-1.06l.807,6.575Zm2.41,0-.691-6.574h-1.058l.691,6.574Zm2.41,0-.575-6.575h-1.056l.575,6.574Zm2.41,0-.46-6.575H607.2l.46,6.575Zm2.41,0-.345-6.575h-1.054l.345,6.575Zm2.41,0-.23-6.575h-1.053l.23,6.575Zm2.41,0-.115-6.575h-1.052l.115,6.575Zm2.41,0v-6.575H617.3v6.575Zm2.407,0v-6.575h-1.052v6.574Zm2.41,0,.115-6.574h-1.053l-.115,6.575Zm2.41,0,.23-6.575H624.76l-.229,6.575Zm2.41,0,.345-6.575h-1.054l-.345,6.574Zm2.41,0,.459-6.574h-1.055l-.46,6.575Zm2.41,0,.575-6.575h-1.056l-.575,6.574Zm2.41,0,.691-6.575h-1.058l-.691,6.575Zm2.41,0,.807-6.575h-1.06l-.807,6.575Zm2.41,0,.924-6.574H639.9l-.924,6.575Zm2.41,0,1.041-6.575h-1.066l-1.039,6.56.093.015Z" transform="translate(-589.77 -286.021)" fill="#51c5dc"/>
      </g>
      <path id="Path_49146" data-name="Path 49146" d="M324.289,341.656c.236,1.489.969,2.782,2.916,2.473,2.176-.345,3.685-2.8,6.908-4.818,5.24-3.281,16.14-1.341,14.086,11.1-3.148,19.059-27.9,19.78-63.769,14.838a62.806,62.806,0,0,0,6.645-13.518,30.124,30.124,0,0,0,8.162-8.514c.621-.962,1.485-2.343,1.832-3,.029-.024.056-.058.088-.063a14.527,14.527,0,0,0,.14,2.737c.408,2.577,1.513,5.1,4.433,4.64,2.176-.345,4.866-4.117,6.312-6.107.045.286.043.639.106,1.04.5,3.15,1.6,3.8,3.145,3.552s3.441-2.365,5.64-5.531c.872-1.312,2-3.061,2.409-3.774.3-.446.785-1.243,1.732-2.693,1.563-2.361,2.3-3.651,3.09-4.951l.133.1c-2.917,7.154-4.553,9.057-4.009,12.493m-18.668,5.188c-.916.145-1.435-.536-1.607-1.624-.653-4.123,3.369-13.566,8.008-14.3,1.2-.191,1.92.635,2.1,1.781.671,4.237-5.181,13.618-8.5,14.144m-16.829,5.307a60.126,60.126,0,0,1-5.285,12.972q-2.963-.413-6.026-.877c1.391-2.725,4.841-6.431,11.245-12.144Zm-11.614,12.757q3.014.447,5.923.849c-1.515,2.312-2.939,3.435-4.256,3.643-.974.154-1.827-.415-2.063-1.9a4.788,4.788,0,0,1,.4-2.589m53.371-35.984,3.777-10.989c1.71-5.143,4.019-10.205,7.455-10.749,1.088-.172,1.667.147,1.83,1.178.635,4.009-3.589,8.846-6.249,12.437l-6.682,8.22Zm-68.508,24.822c-.8.127-1.57-.279-1.825-1.883-.762-4.81,3.358-13.27,7.367-13.905,1.431-.227,2.194.885,2.412,2.26.826,5.211-3.43,12.812-7.954,13.529m-35.307-28.51c1.343,8.482-5.683,20.587-13.317,21.8-3.332.528-5.852-.874-6.4-4.328-1.516-9.572,8.843-19.846,17.228-22.975,1.493,1.192,2.1,3.083,2.487,5.506m99.5,17.58c-.172-1.088.327-2.752,1.438-5.746,2.778-7.661,3.526-8.131,4.372-9.087,4.5-4.939,13.256-14.9,12.612-18.963-.363-2.291-1.436-2.766-2.983-2.522-6.3,1-11.253,17.163-13.129,20.513-2.586,4.635-4.614,7.711-5.5,9.116a8.546,8.546,0,0,0-.644,1.015c-2.7,4.42-5.326,7.888-7.044,8.16-.744.118-1.028-.189-1.1-.648-.318-2,4.711-13.25,6.007-15.451l-2.731.55c-1.194.248-.961.974-2.506,4.565l-.133-.1a5.545,5.545,0,0,0-.073-1.573c-.245-1.546-1.189-2.688-2.907-2.416-3.951.626-8.128,4.281-10.621,8.551-.29.5-.474.773-.587.953-.143.164-.34.538-.909,1.456-1.672,2.789-4.488,6.875-8.149,9.333l-.133-.1,7.572-18.165-3.611.924c-1.252,3.955-8.6,16.507-12.149,17.07-.63.1-.838-.1-.938-.732-.335-2.119,4.382-7.915,3.738-11.981-.245-1.546-1.243-3.032-3.018-2.751-1.317.208-3.062,1.424-5.746,5.606-1.362,2.139-1.919,3.03-2.138,3.441-.107.156-.269.431-.575.922a7.469,7.469,0,0,1-4.881,3.649,1.355,1.355,0,0,1-.648-.015c1.446-1.99,2.617-5.346,2.245-7.694-.363-2.291-1.886-3.752-4.062-3.407-2.577.408-5.853,2.336-8.675,6.012-1.077,1.418-2.9,4.52-6.531,9.522-2.295,3.158-3.484,4.278-4.574,4.451-1.212.192-1.659-.669-1.86-1.941-.441-2.787.918-7.536.438-10.565-.393-2.484-3.087-6.156-5.868-6.461l-.019-.121c3.517-.93,12.284-6.355,11.161-13.444a9.479,9.479,0,0,0-6.968-7.529,21.8,21.8,0,0,1,2.812-2.247c-.029-.181-.108-.293-.36-.315a23.366,23.366,0,0,0-3.548,2.3A32.253,32.253,0,0,0,232.4,316.7a36.008,36.008,0,0,0-7.854,2.175c-1.895-1.377-5.623-1.78-8.47-1.329-12.3,1.948-16.419,16.326-16.227,17.537.048.3.208.526.268.516.424-.067.28-.976.736-2.414,2.8-8.58,8.674-13.857,15.338-14.913,2.242-.355,5.5-.188,7.425,1-8.185,3.222-18.888,13.674-17.343,23.428a6.053,6.053,0,0,0,7.3,5.3c9.815-1.555,16.583-12.936,15.2-21.66a12.615,12.615,0,0,0-3.524-6.957,29.311,29.311,0,0,1,6.721-1.872c3.453-.547,8.093-.661,10.658.237-7.031,7.759-10.15,14.339-12.87,22.658-3.92,12.11-6.773,20.76-17.315,22.43-1.333.211-2.921-.407-3.152-1.861-.134-.848.535-1.327.363-2.418a2.192,2.192,0,0,0-2.648-1.817c-1.818.288-2.455,1.755-2.186,3.452.25,1.575,2.891,4.138,7.859,3.351,13.329-2.111,20.082-19.08,23.546-30.931a38.2,38.2,0,0,1,7.347-14.392c2.392.987,3.7,3.388,4.126,6.054,1.065,6.725-4.592,12.962-7.985,13.5-.545.086-1.751-.468-2.478-.353-1.091.173-1.722.894-1.664,1.257.077.484,1,.835,2.214.643a18.761,18.761,0,0,1,1.891-.61c1.553,0,2.357,1.552,2.511,2.521.681,4.3-1,6.991-.3,11.414.47,2.969,3.09,5.784,5.574,5.39,1.333-.211,2.439-1.07,5.091-4.719,2.141-2.948,3.612-5.378,3.818-5.7s.576-.948.788-1.026q.172-.027.226.316a15.077,15.077,0,0,0,.185,3.024c.49,3.092,2.067,4.9,4.358,4.534,3.207-.508,5.228-2.942,6.686-5.227a2.4,2.4,0,0,0,.753-.061,7.968,7.968,0,0,0,5.279-3.36,12.591,12.591,0,0,0,1.121-1.768c.306-.505.919-1.609,2.6-4.045,1.813-2.636,3.313-4.282,4.746-4.509.687-.109.961.141,1.034.6.4,2.52-4.4,7.8-3.739,11.98.245,1.546,1.548,3.1,2.98,2.874,2.806-.444,7.93-8.124,9.092-10.421l.133.1-3.477,10.3c-6.266,5.241-11.14,9.542-12.938,13.126-6.487-.99-13.272-2.116-20.326-3.323-21.258-3.638-32.1,1.5-33.214,7.491-1.271,6.857,6.758,10.72,31.255,5.062.875-.183.818-.782.1-.657-30.621,5.632-29.754-1.549-28.674-4.976,1.312-4.166,9.549-9.7,33.242-5.707q9.037,1.522,17.324,2.775a5.191,5.191,0,0,0-.411,2.752c.327,2.062,1.693,2.9,3.3,2.648,1.543-.244,3.323-1.7,5.2-4.239,39.312,5.363,63.886,4.11,66.423-15.094,1.617-12.241-10.253-16.293-17.078-11.628-3.274,2.238-4.284,3.98-6.059,4.261a.9.9,0,0,1-1.034-.6" transform="translate(-199.844 -266.078)" fill="#51c5dc"/>
    </g>
  </g>
</svg>
