<svg xmlns="http://www.w3.org/2000/svg" width="18" height="15" viewBox="0 0 18 15">
    <g id="prefix__right-arrow-2" transform="translate(0 -49.096)">
        <g id="prefix__Group_53801" data-name="Group 53801" transform="translate(-.001 49.096)">
            <path id="prefix__Path_49055" fill="#393939" d="M17.733 54.227l-7.5-5.033a.587.587 0 0 0-.907.507v2.607A10.4 10.4 0 0 0 .967 59.9l-.945 3.425a.612.612 0 0 0 .3.7.575.575 0 0 0 .727-.16c2.45-3.16 4.072-5.918 8.277-6.5v2.4a.587.587 0 0 0 .907.507l7.5-5.033a.616.616 0 0 0 0-1.012z" data-name="Path 49055" transform="translate(.001 -49.096)"/>
        </g>
    </g>
</svg>
