<svg id="help" xmlns="http://www.w3.org/2000/svg" width="18" height="18" viewBox="0 0 18 18">
  <path id="Path_49070" data-name="Path 49070" d="M15.364,2.636A9,9,0,0,0,2.636,15.364,9,9,0,0,0,15.364,2.636ZM9,15.188a.563.563,0,1,1,0-1.125H9a.563.563,0,0,1,0,1.125ZM10.79,9.412a4.163,4.163,0,0,0-1.227,2.963.563.563,0,0,1-1.125,0A5.281,5.281,0,0,1,9.994,8.616a3.305,3.305,0,0,0,.974-2.352A1.766,1.766,0,0,0,9.2,4.5H9.077A1.766,1.766,0,0,0,7.312,6.264v.2a.563.563,0,1,1-1.125,0v-.2A2.892,2.892,0,0,1,9.077,3.375H9.2a2.892,2.892,0,0,1,2.889,2.889A4.422,4.422,0,0,1,10.79,9.412Z" transform="translate(0 0)" fill="#51c5dc"/>
</svg>
