<svg xmlns="http://www.w3.org/2000/svg" id="prefix__key" width="18" height="18" viewBox="0 0 18 18">
    <g id="prefix__Group_53818" data-name="Group 53818">
        <path id="prefix__Path_49073" fill="#51c5dc" d="M16.3 1.7a5.8 5.8 0 0 0-9.612 5.883L.156 14.116a.527.527 0 0 0-.156.373v2.983A.527.527 0 0 0 .528 18h2.984a.527.527 0 0 0 .373-.155l.745-.745a.527.527 0 0 0 .151-.434l-.093-.8 1.11-.1a.526.526 0 0 0 .475-.475l.1-1.11.8.093a.519.519 0 0 0 .411-.13.529.529 0 0 0 .177-.394v-.982h.964a.527.527 0 0 0 .373-.155l1.352-1.334A5.711 5.711 0 0 0 16.3 9.9a5.807 5.807 0 0 0 0-8.2zm-1.487 3.725a1.582 1.582 0 1 1 0-2.237 1.583 1.583 0 0 1 0 2.237z" data-name="Path 49073" transform="translate(-.001)"/>
    </g>
</svg>
