<svg xmlns="http://www.w3.org/2000/svg" width="18" height="24" viewBox="0 0 18 24">
    <path id="prefix__micrphone" fill="#51c5dc" d="M14.062 18.158a3.825 3.825 0 0 0 3.879-3.789l.013-7.579a3.893 3.893 0 0 0-7.783 0v7.579a3.836 3.836 0 0 0 3.891 3.789zm7.887-3.789a1.07 1.07 0 0 0-1.077.9 6.754 6.754 0 0 1-6.81 5.545 6.743 6.743 0 0 1-6.81-5.545 1.08 1.08 0 0 0-1.077-.9 1.093 1.093 0 0 0-1.1 1.225 9.052 9.052 0 0 0 7.692 7.263v2.88a1.3 1.3 0 0 0 2.594 0v-2.88a9.037 9.037 0 0 0 7.692-7.263 1.093 1.093 0 0 0-1.104-1.226z" transform="translate(-5.062 -3)"/>
</svg>
