<svg xmlns="http://www.w3.org/2000/svg" width="19" height="21" viewBox="0 0 19 21">
    <g id="prefix__paperclip" transform="translate(-28.042)">
        <g id="prefix__Group_53641" data-name="Group 53641" transform="translate(28.042)">
            <path id="prefix__Path_48841" fill="#969696" d="M45.487 1.53a5.382 5.382 0 0 0-7.517 0l-7.914 7.789a.608.608 0 0 0 0 .87.632.632 0 0 0 .884 0L38.854 2.4a4.212 4.212 0 0 1 5.748 0 3.96 3.96 0 0 1 0 5.657l-11.051 11a2.591 2.591 0 0 1-3.537 0 2.437 2.437 0 0 1 0-3.481L40.623 5.01a.972.972 0 0 1 1.326 0 .914.914 0 0 1 0 1.306L31.783 16.445a.678.678 0 0 0 0 .87.632.632 0 0 0 .884 0L42.834 7.187a2.132 2.132 0 0 0 0-3.046 2.268 2.268 0 0 0-3.095 0L29.13 14.7a3.675 3.675 0 0 0 0 5.221 3.815 3.815 0 0 0 5.306 0l11.051-11a5.178 5.178 0 0 0 0-7.391z" data-name="Path 48841" transform="translate(-28.041)"/>
        </g>
    </g>
</svg>
