<svg xmlns="http://www.w3.org/2000/svg" width="21.5" height="21.5" viewBox="0 0 21.5 21.5">
    <defs>
        <style>
            .prefix__cls-1{fill:#969696;stroke:#969696;stroke-width:.5px}
        </style>
    </defs>
    <g id="prefix__smile" transform="translate(.25 .25)">
        <g id="prefix__Group_53640" data-name="Group 53640">
            <g id="prefix__Group_53639" data-name="Group 53639">
                <path id="prefix__Path_48837" d="M113.641 224.125a.49.49 0 0 0-.692.038 5.453 5.453 0 0 1-8.093 0 .49.49 0 1 0-.73.654 6.434 6.434 0 0 0 9.554 0 .491.491 0 0 0-.039-.692z" class="prefix__cls-1" data-name="Path 48837" transform="translate(-98.402 -211.358)"/>
                <path id="prefix__Path_48838" d="M10.5 0A10.5 10.5 0 1 0 21 10.5 10.512 10.512 0 0 0 10.5 0zm0 20.087a9.587 9.587 0 1 1 9.587-9.587 9.6 9.6 0 0 1-9.587 9.587z" class="prefix__cls-1" data-name="Path 48838"/>
                <path id="prefix__Path_48839" d="M210.451 128a2.454 2.454 0 0 0-2.451 2.451.49.49 0 0 0 .98 0 1.471 1.471 0 1 1 2.941 0 .49.49 0 0 0 .98 0 2.454 2.454 0 0 0-2.45-2.451z" class="prefix__cls-1" data-name="Path 48839" transform="translate(-196.374 -120.776)"/>
                <path id="prefix__Path_48840" d="M83.922 130.451a.49.49 0 0 0 .98 0 2.451 2.451 0 1 0-4.9 0 .49.49 0 0 0 .98 0 1.471 1.471 0 1 1 2.941 0z" class="prefix__cls-1" data-name="Path 48840" transform="translate(-75.528 -120.776)"/>
            </g>
        </g>
    </g>
</svg>
