<svg xmlns="http://www.w3.org/2000/svg" width="34" height="34" viewBox="0 0 34 34">
  <g id="Upload_screenshots" data-name="Upload screenshots" transform="translate(-138 -370)">
    <circle id="Ellipse_102" data-name="Ellipse 102" cx="17" cy="17" r="17" transform="translate(138 370)" fill="#def1f5"/>
    <g id="multimedia" transform="translate(147 344.07)">
      <g id="Group_53870" data-name="Group 53870" transform="translate(4.493 40.937)">
        <g id="Group_53869" data-name="Group 53869">
          <path id="Path_49081" data-name="Path 49081" d="M151.7,201.322l-3.272,3.272.855.855,1.813-1.813v6H152.3v-6l1.813,1.813.855-.855Z" transform="translate(-148.426 -201.322)" fill="#51c5dc"/>
        </g>
      </g>
      <g id="Group_53872" data-name="Group 53872" transform="translate(0 35.93)">
        <g id="Group_53871" data-name="Group 53871">
          <path id="Path_49082" data-name="Path 49082" d="M12.6,40.69a4.9,4.9,0,0,0-9.69-.841,3.686,3.686,0,0,0,.779,7.29h.635V45.931H3.683a2.478,2.478,0,0,1-.2-4.947l.5-.04.051-.5a3.686,3.686,0,0,1,7.353.381v1.058h.876a2.024,2.024,0,0,1,0,4.049H11.21v1.209h1.058A3.233,3.233,0,0,0,12.6,40.69Z" transform="translate(0 -35.93)" fill="#51c5dc"/>
        </g>
      </g>
    </g>
  </g>
</svg>
