<svg xmlns="http://www.w3.org/2000/svg" width="20" height="20" viewBox="0 0 20 20">
    <defs>
        <style>
            .prefix__cls-1{fill:#fff}
        </style>
    </defs>
    <g id="prefix__add-user">
        <g id="prefix__Group_53853" data-name="Group 53853">
            <g id="prefix__Group_53852" data-name="Group 53852">
                <path id="prefix__Path_49079" d="M14.214 10.036a10 10 0 0 0-1.164-.472A5.322 5.322 0 0 0 9.9 0a5.322 5.322 0 0 0-3.147 9.567 10.02 10.02 0 0 0-3.241 1.8 10.21 10.21 0 0 0-3.461 5.771 2.39 2.39 0 0 0 .478 1.989A2.326 2.326 0 0 0 2.347 20h9.524a.781.781 0 0 0 0-1.562H2.347a.783.783 0 0 1-.619-.3.822.822 0 0 1-.164-.684 8.568 8.568 0 0 1 8.13-6.835h.412a8.355 8.355 0 0 1 3.443.826.77.77 0 0 0 1.03-.37.785.785 0 0 0-.365-1.039zm-4.126-.978h-.376a3.712 3.712 0 1 1 .376 0z" class="prefix__cls-1" data-name="Path 49079"/>
            </g>
        </g>
        <g id="prefix__Group_53855" data-name="Group 53855" transform="translate(12.334 12.334)">
            <g id="prefix__Group_53854" data-name="Group 53854">
                <path id="prefix__Path_49080" d="M328.859 325.026h-2.219v-2.219a.807.807 0 0 0-1.614 0v2.219h-2.219a.807.807 0 0 0 0 1.614h2.219v2.219a.807.807 0 0 0 1.614 0v-2.219h2.219a.807.807 0 0 0 0-1.614z" class="prefix__cls-1" data-name="Path 49080" transform="translate(-322 -322)"/>
            </g>
        </g>
    </g>
</svg>
